<svg version="1.1" xmlns="http://www.w3.org/2000/svg" xmlns:xlink="http://www.w3.org/1999/xlink" width="277" height="267" viewBox="0,0,277,267"><defs><linearGradient x1="240" y1="46.5" x2="240" y2="313.5" gradientUnits="userSpaceOnUse" id="color-1"><stop offset="0" stop-color="#f0f0f0"/><stop offset="1" stop-color="#dddddd"/></linearGradient><linearGradient x1="240.00001" y1="77.5" x2="240.00001" y2="282.5" gradientUnits="userSpaceOnUse" id="color-2"><stop offset="0" stop-color="#f0f0f0"/><stop offset="1" stop-color="#dddddd"/></linearGradient><linearGradient x1="191.26725" y1="114.29374" x2="226.61097" y2="114.29374" gradientUnits="userSpaceOnUse" id="color-3"><stop offset="0" stop-color="#000000"/><stop offset="1" stop-color="#000000" stop-opacity="0"/></linearGradient><linearGradient x1="156.23781" y1="149.38767" x2="191.58153" y2="149.38767" gradientUnits="userSpaceOnUse" id="color-4"><stop offset="0" stop-color="#000000"/><stop offset="1" stop-color="#000000" stop-opacity="0"/></linearGradient><linearGradient x1="191.28736" y1="184.32892" x2="226.63106" y2="184.32892" gradientUnits="userSpaceOnUse" id="color-5"><stop offset="0" stop-color="#000000"/><stop offset="1" stop-color="#000000" stop-opacity="0"/></linearGradient><linearGradient x1="226.28274" y1="219.32431" x2="261.62645" y2="219.32431" gradientUnits="userSpaceOnUse" id="color-6"><stop offset="0" stop-color="#000000"/><stop offset="1" stop-color="#000000" stop-opacity="0"/></linearGradient><linearGradient x1="261.28448" y1="254.30416" x2="296.62818" y2="254.30416" gradientUnits="userSpaceOnUse" id="color-7"><stop offset="0" stop-color="#000000"/><stop offset="1" stop-color="#000000" stop-opacity="0"/></linearGradient><linearGradient x1="296.27986" y1="219.3464" x2="331.62357" y2="219.3464" gradientUnits="userSpaceOnUse" id="color-8"><stop offset="0" stop-color="#000000"/><stop offset="1" stop-color="#000000" stop-opacity="0"/></linearGradient><linearGradient x1="261.21383" y1="184.17207" x2="296.55753" y2="184.17207" gradientUnits="userSpaceOnUse" id="color-9"><stop offset="0" stop-color="#000000"/><stop offset="1" stop-color="#000000" stop-opacity="0"/></linearGradient><linearGradient x1="296.26336" y1="149.21431" x2="331.60706" y2="149.21431" gradientUnits="userSpaceOnUse" id="color-10"><stop offset="0" stop-color="#000000"/><stop offset="1" stop-color="#000000" stop-opacity="0"/></linearGradient><linearGradient x1="261.1973" y1="114.2024" x2="296.54103" y2="114.2024" gradientUnits="userSpaceOnUse" id="color-11"><stop offset="0" stop-color="#000000"/><stop offset="1" stop-color="#000000" stop-opacity="0"/></linearGradient><linearGradient x1="191.22766" y1="254.4178" x2="226.57137" y2="254.4178" gradientUnits="userSpaceOnUse" id="color-12"><stop offset="0" stop-color="#000000"/><stop offset="1" stop-color="#000000" stop-opacity="0"/></linearGradient><linearGradient x1="156.22766" y1="219.1053" x2="191.57137" y2="219.1053" gradientUnits="userSpaceOnUse" id="color-13"><stop offset="0" stop-color="#000000"/><stop offset="1" stop-color="#000000" stop-opacity="0"/></linearGradient><linearGradient x1="203.93911" y1="91.55494" x2="203.93911" y2="127.03254" gradientUnits="userSpaceOnUse" id="color-14"><stop offset="0" stop-color="#8cdbdf"/><stop offset="1" stop-color="#8cb9de"/></linearGradient><linearGradient x1="168.90968" y1="126.64887" x2="168.90968" y2="162.12647" gradientUnits="userSpaceOnUse" id="color-15"><stop offset="0" stop-color="#8cdbdf"/><stop offset="1" stop-color="#8cb9de"/></linearGradient><linearGradient x1="203.95921" y1="161.59012" x2="203.95921" y2="197.06772" gradientUnits="userSpaceOnUse" id="color-16"><stop offset="0" stop-color="#8cdbdf"/><stop offset="1" stop-color="#8cb9de"/></linearGradient><linearGradient x1="238.9546" y1="196.58551" x2="238.9546" y2="232.06311" gradientUnits="userSpaceOnUse" id="color-17"><stop offset="0" stop-color="#8cdbdf"/><stop offset="1" stop-color="#8cb9de"/></linearGradient><linearGradient x1="273.95633" y1="231.56537" x2="273.95633" y2="267.04296" gradientUnits="userSpaceOnUse" id="color-18"><stop offset="0" stop-color="#8cdbdf"/><stop offset="1" stop-color="#8cb9de"/></linearGradient><linearGradient x1="308.95171" y1="196.60761" x2="308.95171" y2="232.0852" gradientUnits="userSpaceOnUse" id="color-19"><stop offset="0" stop-color="#8cdbdf"/><stop offset="1" stop-color="#8cb9de"/></linearGradient><linearGradient x1="273.88568" y1="161.43327" x2="273.88568" y2="196.91087" gradientUnits="userSpaceOnUse" id="color-20"><stop offset="0" stop-color="#8cdbdf"/><stop offset="1" stop-color="#8cb9de"/></linearGradient><linearGradient x1="308.93521" y1="126.47551" x2="308.93521" y2="161.95311" gradientUnits="userSpaceOnUse" id="color-21"><stop offset="0" stop-color="#8cdbdf"/><stop offset="1" stop-color="#8cb9de"/></linearGradient><linearGradient x1="273.86917" y1="91.46361" x2="273.86917" y2="126.9412" gradientUnits="userSpaceOnUse" id="color-22"><stop offset="0" stop-color="#8cdbdf"/><stop offset="1" stop-color="#8cb9de"/></linearGradient><linearGradient x1="203.89951" y1="231.679" x2="203.89951" y2="267.1566" gradientUnits="userSpaceOnUse" id="color-23"><stop offset="0" stop-color="#8cdbdf"/><stop offset="1" stop-color="#8cb9de"/></linearGradient><linearGradient x1="168.89951" y1="196.3665" x2="168.89951" y2="231.8441" gradientUnits="userSpaceOnUse" id="color-24"><stop offset="0" stop-color="#8cdbdf"/><stop offset="1" stop-color="#8cb9de"/></linearGradient></defs><g transform="translate(-101.5,-46.5)"><g data-paper-data="{&quot;isPaintingLayer&quot;:true}" fill-rule="nonzero" stroke="none" stroke-width="0" stroke-linecap="butt" stroke-linejoin="miter" stroke-miterlimit="10" stroke-dasharray="" stroke-dashoffset="0" style="mix-blend-mode: normal"><path d="M101.5,313.5v-267h277v267z" fill="url(#color-1)"/><path d="M347.18038,180c0,56.60919 -47.98629,102.5 -107.18037,102.5c-59.19408,0 -107.18036,-45.89081 -107.18036,-102.5c0,-56.60918 47.98629,-102.5 107.18037,-102.5c59.19408,0 107.18037,45.89082 107.18037,102.5z" data-paper-data="{&quot;index&quot;:null}" fill="url(#color-2)"/><g><path d="M191.26725,132.03254v-35.47759h35.34371v35.47759z" fill="url(#color-3)"/><path d="M156.23781,167.12647v-35.4776h35.34371v35.4776z" fill="url(#color-4)"/><path d="M191.28736,202.06772v-35.47759h35.34371v35.47759z" fill="url(#color-5)"/><path d="M226.28274,237.06311v-35.4776h35.34371v35.4776z" fill="url(#color-6)"/><path d="M261.28448,272.04296v-35.47759h35.34371v35.47759z" fill="url(#color-7)"/><path d="M296.27986,237.0852v-35.47759h35.34371v35.47759z" fill="url(#color-8)"/><path d="M261.21383,201.91087v-35.4776h35.34371v35.4776z" fill="url(#color-9)"/><path d="M296.26336,166.95311v-35.47759h35.34371v35.47759z" fill="url(#color-10)"/><path d="M261.1973,131.9412v-35.4776h35.34371v35.4776z" fill="url(#color-11)"/><path d="M191.22766,272.1566v-35.47759h35.34371v35.47759z" fill="url(#color-12)"/><path d="M156.22766,236.8441v-35.4776h35.34371v35.4776z" fill="url(#color-13)"/></g><path d="M186.26725,127.03254v-35.47759h35.34371v35.47759z" fill="url(#color-14)"/><path d="M151.23781,162.12647v-35.47759h35.34371v35.47759z" fill="url(#color-15)"/><path d="M186.28736,197.06772v-35.47759h35.34371v35.47759z" fill="url(#color-16)"/><path d="M221.28274,232.06311v-35.4776h35.34371v35.4776z" fill="url(#color-17)"/><path d="M256.28448,267.04296v-35.47759h35.34371v35.47759z" fill="url(#color-18)"/><path d="M291.27986,232.0852v-35.47759h35.34371v35.47759z" fill="url(#color-19)"/><path d="M256.21383,196.91087v-35.4776h35.34371v35.4776z" fill="url(#color-20)"/><path d="M291.26336,161.95311v-35.47759h35.34371v35.47759z" fill="url(#color-21)"/><path d="M256.1973,126.9412v-35.47759h35.34371v35.47759z" fill="url(#color-22)"/><path d="M186.22766,267.1566v-35.47759h35.34371v35.47759z" fill="url(#color-23)"/><path d="M151.22766,231.8441v-35.4776h35.34371v35.4776z" fill="url(#color-24)"/></g></g></svg>